<svg width="16" height="16" viewBox="0 0 16 16" fill="none" xmlns="http://www.w3.org/2000/svg">
<path fill-rule="evenodd" clip-rule="evenodd" d="M4.64689 1.64592C4.69334 1.59935 4.74851 1.56241 4.80926 1.5372C4.87001 1.512 4.93513 1.49902 5.00089 1.49902C5.06666 1.49902 5.13178 1.512 5.19253 1.5372C5.25327 1.56241 5.30845 1.59935 5.35489 1.64592L11.3549 7.64592C11.4015 7.69236 11.4384 7.74754 11.4636 7.80828C11.4888 7.86903 11.5018 7.93415 11.5018 7.99992C11.5018 8.06568 11.4888 8.13081 11.4636 8.19155C11.4384 8.2523 11.4015 8.30747 11.3549 8.35392L5.35489 14.3539C5.26101 14.4478 5.13367 14.5005 5.00089 14.5005C4.86812 14.5005 4.74078 14.4478 4.64689 14.3539C4.55301 14.26 4.50026 14.1327 4.50026 13.9999C4.50026 13.8671 4.55301 13.7398 4.64689 13.6459L10.2939 7.99992L4.64689 2.35392C4.60033 2.30747 4.56339 2.2523 4.53818 2.19155C4.51297 2.13081 4.5 2.06568 4.5 1.99992C4.5 1.93415 4.51297 1.86903 4.53818 1.80828C4.56339 1.74754 4.60033 1.69236 4.64689 1.64592Z" fill="#03221F"/>
</svg>
