<svg width="16" height="16" viewBox="0 0 16 16" fill="none" xmlns="http://www.w3.org/2000/svg">
<path fill-rule="evenodd" clip-rule="evenodd" d="M11.3549 1.64592C11.4015 1.69236 11.4384 1.74754 11.4636 1.80828C11.4888 1.86903 11.5018 1.93415 11.5018 1.99992C11.5018 2.06568 11.4888 2.13081 11.4636 2.19155C11.4384 2.2523 11.4015 2.30747 11.3549 2.35392L5.70789 7.99992L11.3549 13.6459C11.4488 13.7398 11.5015 13.8671 11.5015 13.9999C11.5015 14.1327 11.4488 14.26 11.3549 14.3539C11.261 14.4478 11.1337 14.5005 11.0009 14.5005C10.8681 14.5005 10.7408 14.4478 10.6469 14.3539L4.64689 8.35392C4.60033 8.30747 4.56339 8.2523 4.53818 8.19155C4.51297 8.13081 4.5 8.06568 4.5 7.99992C4.5 7.93415 4.51297 7.86903 4.53818 7.80828C4.56339 7.74754 4.60033 7.69236 4.64689 7.64592L10.6469 1.64592C10.6933 1.59935 10.7485 1.56241 10.8093 1.5372C10.87 1.512 10.9351 1.49902 11.0009 1.49902C11.0667 1.49902 11.1318 1.512 11.1925 1.5372C11.2533 1.56241 11.3084 1.59935 11.3549 1.64592Z" fill="#03221F"/>
</svg>
