<svg width="14" height="14" viewBox="0 0 14 14" fill="none" xmlns="http://www.w3.org/2000/svg">
<g clip-path="url(#clip0_458_356669)">
<rect width="14" height="14" fill="white" fill-opacity="0.01"/>
<g clip-path="url(#clip1_458_356669)">
<path d="M10.2731 9.05036C11.1203 7.89421 11.4998 6.46078 11.3356 5.03686C11.1714 3.61294 10.4756 2.30353 9.38738 1.37059C8.29918 0.437661 6.89886 -0.0499914 5.46656 0.00519764C4.03427 0.0603866 2.67562 0.654347 1.66244 1.66825C0.649265 2.68215 0.0562767 4.04122 0.00211259 5.47356C-0.0520515 6.9059 0.436603 8.30587 1.37031 9.39339C2.30403 10.4809 3.61393 11.1758 5.03797 11.339C6.46201 11.5022 7.89517 11.1217 9.05071 10.2736H9.04983C9.07608 10.3086 9.10408 10.3419 9.13558 10.3742L12.5043 13.743C12.6684 13.9072 12.891 13.9995 13.1231 13.9995C13.3552 13.9996 13.5778 13.9075 13.742 13.7434C13.9062 13.5793 13.9985 13.3568 13.9986 13.1247C13.9987 12.8926 13.9065 12.6699 13.7425 12.5057L10.3737 9.13698C10.3424 9.10531 10.3088 9.07606 10.2731 9.04948V9.05036ZM10.4988 5.68686C10.4988 6.31884 10.3744 6.94464 10.1325 7.52852C9.89065 8.1124 9.53617 8.64292 9.08928 9.08981C8.6424 9.53669 8.11188 9.89118 7.528 10.133C6.94412 10.3749 6.31832 10.4994 5.68633 10.4994C5.05435 10.4994 4.42855 10.3749 3.84467 10.133C3.26079 9.89118 2.73026 9.53669 2.28338 9.08981C1.8365 8.64292 1.48201 8.1124 1.24016 7.52852C0.998311 6.94464 0.873833 6.31884 0.873833 5.68686C0.873833 4.4105 1.38086 3.18642 2.28338 2.2839C3.1859 1.38139 4.40998 0.874356 5.68633 0.874356C6.96269 0.874356 8.18677 1.38139 9.08928 2.2839C9.9918 3.18642 10.4988 4.4105 10.4988 5.68686V5.68686Z" fill="#6C757D"/>
</g>
</g>
<defs>
<clipPath id="clip0_458_356669">
<rect width="14" height="14" fill="white"/>
</clipPath>
<clipPath id="clip1_458_356669">
<rect width="14" height="14" fill="white"/>
</clipPath>
</defs>
</svg>
